<svg width="25" height="25" viewBox="0 0 25 25" fill="none" xmlns="http://www.w3.org/2000/svg">
<path d="M23.1162 24.6162H15.1162C14.8052 24.6162 14.5122 24.4712 14.3232 24.2252C14.1342 23.9782 14.0692 23.6582 14.1502 23.3572C14.7412 21.1542 16.7832 19.6162 19.1162 19.6162C21.4492 19.6162 23.4912 21.1542 24.0822 23.3572C24.1632 23.6582 24.0992 23.9782 23.9092 24.2252C23.7212 24.4722 23.4272 24.6162 23.1162 24.6162ZM19.1162 18.6162C17.7372 18.6162 16.6162 17.4952 16.6162 16.1162C16.6162 14.7372 17.7372 13.6162 19.1162 13.6162C20.4952 13.6162 21.6162 14.7372 21.6162 16.1162C21.6162 17.4952 20.4952 18.6162 19.1162 18.6162ZM24.0782 8.34121L22.9062 4.24221C22.2962 2.10721 20.3182 0.616211 18.0982 0.616211H17.1162V4.61621C17.1162 5.16821 16.6692 5.61621 16.1162 5.61621C15.5632 5.61621 15.1162 5.16821 15.1162 4.61621V0.616211H9.11621V4.61621C9.11621 5.16821 8.66821 5.61621 8.11621 5.61621C7.56421 5.61621 7.11621 5.16821 7.11621 4.61621V0.616211H6.13321C3.91321 0.616211 1.93621 2.10721 1.32521 4.24221L0.155211 8.34121C0.130211 8.43021 0.116211 8.52321 0.116211 8.61621C0.116211 10.8222 1.91021 12.6162 4.11621 12.6162H5.11621C6.31621 12.6162 7.38221 12.0742 8.11621 11.2342C8.85021 12.0742 9.91621 12.6162 11.1162 12.6162H13.1162C14.3172 12.6162 15.3822 12.0742 16.1162 11.2342C16.8502 12.0742 17.9152 12.6162 19.1162 12.6162H20.1162C22.3222 12.6162 24.1162 10.8222 24.1162 8.61621C24.1162 8.52321 24.1032 8.43021 24.0782 8.34121ZM12.2192 22.8362C12.7002 21.0422 13.8782 19.5802 15.4112 18.6602C14.9122 17.9352 14.6162 17.0602 14.6162 16.1152C14.6162 15.4632 14.7622 14.8472 15.0122 14.2882C14.4052 14.4952 13.7682 14.6152 13.1162 14.6152H11.1162C10.0542 14.6152 9.02121 14.3272 8.11621 13.7962C7.21121 14.3272 6.17821 14.6152 5.11621 14.6152H4.11621C3.02321 14.6152 2.00021 14.3162 1.11621 13.8032V20.6152C1.11621 22.8212 2.91021 24.6152 5.11621 24.6152H12.3082C12.1072 24.0472 12.0602 23.4272 12.2192 22.8362Z" fill="#FFBA15"/>
</svg>
